<?xml version="1.0" encoding="UTF-8" standalone="no"?>
<svg
   xmlns:dc="http://purl.org/dc/elements/1.1/"
   xmlns:cc="http://creativecommons.org/ns#"
   xmlns:rdf="http://www.w3.org/1999/02/22-rdf-syntax-ns#"
   xmlns:svg="http://www.w3.org/2000/svg"
   xmlns="http://www.w3.org/2000/svg"
   xmlns:sodipodi="http://sodipodi.sourceforge.net/DTD/sodipodi-0.dtd"
   xmlns:inkscape="http://www.inkscape.org/namespaces/inkscape"
   id="svg2"
   width="21.333599"
   height="21.333599"
   version="1.1"
   sodipodi:docname="btn_play_sampler_over.svg"
   viewBox="0 0 32.000399 32.000399"
   inkscape:version="0.92.3 (2405546, 2018-03-11)">
  <metadata
     id="metadata44">
    <rdf:RDF>
      <cc:Work
         rdf:about="">
        <dc:format>image/svg+xml</dc:format>
        <dc:type
           rdf:resource="http://purl.org/dc/dcmitype/StillImage" />
        <dc:title></dc:title>
      </cc:Work>
    </rdf:RDF>
  </metadata>
  <sodipodi:namedview
     pagecolor="#ffffff"
     bordercolor="#666666"
     borderopacity="1"
     objecttolerance="10"
     gridtolerance="10"
     guidetolerance="10"
     inkscape:pageopacity="0"
     inkscape:pageshadow="2"
     inkscape:window-width="640"
     inkscape:window-height="480"
     id="namedview42"
     showgrid="false"
     scale-x="1.5"
     fit-margin-top="0"
     fit-margin-left="0"
     fit-margin-right="0"
     fit-margin-bottom="0"
     inkscape:zoom="6.9411765"
     inkscape:cx="17"
     inkscape:cy="4.3336"
     inkscape:window-x="0"
     inkscape:window-y="0"
     inkscape:window-maximized="0"
     inkscape:current-layer="svg2" />
  <defs
     id="defs4">
    <linearGradient
       id="linearGradient4736"
       x1="11"
       x2="11"
       y1="1027.4"
       y2="1049.4"
       gradientTransform="matrix(1.3478,0,0,1.3478,-0.17391,-1415.5)"
       gradientUnits="userSpaceOnUse">
      <stop
         id="stop3803-7-1-95"
         stop-color="#ce0e0e"
         offset="0" />
      <stop
         id="stop4329-2"
         stop-color="#d00"
         offset=".28" />
      <stop
         id="stop3805-5-28-1"
         stop-color="#8d0000"
         offset="1" />
    </linearGradient>
  </defs>
  <rect
     id="rect3029-96-3"
     transform="scale(1,-1)"
     x="0.5"
     y="-31.5"
     width="31"
     height="31"
     rx="1.5"
     ry="1.5"
     style="color:#000000;fill:url(#linearGradient4736)" />
  <path
     id="path3936-0-8-9-3"
     d="M 23.95,17 12,24.9777 v 1.6562 l 13.2,-8.7902 z"
     inkscape:connector-curvature="0"
     style="fill:#3d0000" />
  <path
     id="path3936-0-8-9-7"
     d="M 11,8.3661 23.95,17.0001 11,25.634 V 8.366"
     inkscape:connector-curvature="0"
     style="fill:#bfbfbf" />
  <path
     id="path5055"
     d="M 2.6562,0 C 1.1904,0 0,1.1904 0,2.6562 v 26.688 c 0,1.4658 1.1904,2.6562 2.6562,2.6562 h 26.688 c 1.4658,0 2.6562,-1.1904 2.6562,-2.6562 V 2.6562 C 32.0004,1.1904 30.81,0 29.3442,0 Z m 0.125,1 h 26.438 c 0.76725,0 1.7812,1.014 1.7812,1.7812 v 26.438 c 0,0.76725 -1.014,1.7812 -1.7812,1.7812 H 2.7812 C 2.01395,31.0004 1,29.9864 1,29.2192 V 2.7812 C 1,2.01395 2.014,1 2.7812,1 Z"
     style="color:#000000;text-indent:0;text-transform:none;fill:#979797"
     inkscape:connector-curvature="0" />
</svg>
