<?xml version="1.0" encoding="UTF-8" standalone="no"?>
<svg
   xmlns:dc="http://purl.org/dc/elements/1.1/"
   xmlns:cc="http://creativecommons.org/ns#"
   xmlns:rdf="http://www.w3.org/1999/02/22-rdf-syntax-ns#"
   xmlns:svg="http://www.w3.org/2000/svg"
   xmlns="http://www.w3.org/2000/svg"
   xmlns:sodipodi="http://sodipodi.sourceforge.net/DTD/sodipodi-0.dtd"
   xmlns:inkscape="http://www.inkscape.org/namespaces/inkscape"
   id="svg2"
   width="20.666666"
   height="20.666666"
   version="1.1"
   sodipodi:docname="btn_play_sampler_overdown.svg"
   viewBox="0 0 30.999999 30.999999"
   inkscape:version="0.92.3 (2405546, 2018-03-11)">
  <metadata
     id="metadata58">
    <rdf:RDF>
      <cc:Work
         rdf:about="">
        <dc:format>image/svg+xml</dc:format>
        <dc:type
           rdf:resource="http://purl.org/dc/dcmitype/StillImage" />
        <dc:title></dc:title>
      </cc:Work>
    </rdf:RDF>
  </metadata>
  <sodipodi:namedview
     pagecolor="#ffffff"
     bordercolor="#666666"
     borderopacity="1"
     objecttolerance="10"
     gridtolerance="10"
     guidetolerance="10"
     inkscape:pageopacity="0"
     inkscape:pageshadow="2"
     inkscape:window-width="1920"
     inkscape:window-height="1025"
     id="namedview56"
     showgrid="false"
     scale-x="1.5"
     fit-margin-top="0"
     fit-margin-left="0"
     fit-margin-right="0"
     fit-margin-bottom="0"
     inkscape:zoom="6.9411765"
     inkscape:cx="16.666667"
     inkscape:cy="4"
     inkscape:window-x="0"
     inkscape:window-y="0"
     inkscape:window-maximized="1"
     inkscape:current-layer="svg2" />
  <defs
     id="defs4">
    <linearGradient
       id="linearGradient4836"
       x1="15"
       x2="15"
       y1="1049.4"
       y2="1027.4"
       gradientTransform="matrix(1.3478,0,0,1.3478,-0.67391,-1384)"
       gradientUnits="userSpaceOnUse">
      <stop
         id="stop3803-7-1-9"
         stop-color="#aa1112"
         offset="0" />
      <stop
         id="stop4329-4"
         stop-color="#b60607"
         offset=".28" />
      <stop
         id="stop3805-5-28-5"
         stop-color="#760607"
         offset="1" />
    </linearGradient>
  </defs>
  <rect
     id="rect3029-96-4"
     x="0"
     y="0"
     width="31"
     height="31"
     rx="1.5"
     ry="1.5"
     style="color:#000000;fill:url(#linearGradient4836)" />
  <path
     id="path3936-0-8-9-3"
     d="M 23.45,16.5 11.5,24.4777 v 1.6562 l 13.2,-8.7902 z"
     inkscape:connector-curvature="0"
     style="fill:#320202" />
  <path
     id="path3936-0-8-9-7"
     d="M 10.5,7.8661 23.45,16.5001 10.5,25.134 V 7.866"
     inkscape:connector-curvature="0"
     style="fill:#8d8f90" />
  <path
     id="path5055"
     d="M 2.1562,-0.5 C 0.6904,-0.5 -0.5,0.6904 -0.5,2.1562 v 26.688 c 0,1.4658 1.1904,2.6562 2.6562,2.6562 h 26.688 c 1.4658,0 2.6562,-1.1904 2.6562,-2.6562 V 2.1562 C 31.5004,0.6904 30.31,-0.5 28.8442,-0.5 Z m 0.125,1 h 26.438 c 0.76725,0 1.7812,1.014 1.7812,1.7812 v 26.438 c 0,0.76725 -1.014,1.7812 -1.7812,1.7812 H 2.2812 C 1.51395,30.5004 0.5,29.4864 0.5,28.7192 V 2.2812 C 0.5,1.51395 1.514,0.5 2.2812,0.5 Z"
     style="color:#000000;text-indent:0;text-transform:none;fill:#979797"
     inkscape:connector-curvature="0" />
</svg>
