<?xml version="1.0" encoding="UTF-8" standalone="no"?>
<svg
   xmlns:dc="http://purl.org/dc/elements/1.1/"
   xmlns:cc="http://creativecommons.org/ns#"
   xmlns:rdf="http://www.w3.org/1999/02/22-rdf-syntax-ns#"
   xmlns:svg="http://www.w3.org/2000/svg"
   xmlns="http://www.w3.org/2000/svg"
   xmlns:sodipodi="http://sodipodi.sourceforge.net/DTD/sodipodi-0.dtd"
   xmlns:inkscape="http://www.inkscape.org/namespaces/inkscape"
   id="svg2"
   width="22.666666"
   height="22.666666"
   version="1.1"
   sodipodi:docname="btn_play_sampler.svg"
   viewBox="0 0 33.999999 33.999999"
   inkscape:version="0.92.3 (2405546, 2018-03-11)">
  <metadata
     id="metadata16">
    <rdf:RDF>
      <cc:Work
         rdf:about="">
        <dc:format>image/svg+xml</dc:format>
        <dc:type
           rdf:resource="http://purl.org/dc/dcmitype/StillImage" />
        <dc:title></dc:title>
      </cc:Work>
    </rdf:RDF>
  </metadata>
  <sodipodi:namedview
     pagecolor="#ffffff"
     bordercolor="#666666"
     borderopacity="1"
     objecttolerance="10"
     gridtolerance="10"
     guidetolerance="10"
     inkscape:pageopacity="0"
     inkscape:pageshadow="2"
     inkscape:window-width="640"
     inkscape:window-height="480"
     id="namedview14"
     showgrid="false"
     scale-x="1.5"
     fit-margin-top="0"
     fit-margin-left="0"
     fit-margin-right="0"
     fit-margin-bottom="0"
     inkscape:zoom="6.9411765"
     inkscape:cx="17"
     inkscape:cy="5.6666667"
     inkscape:window-x="0"
     inkscape:window-y="0"
     inkscape:window-maximized="0"
     inkscape:current-layer="svg2" />
  <defs
     id="defs4">
    <linearGradient
       id="linearGradient5688"
       x1="13"
       x2="13"
       y1="1027.4"
       y2="1049.4"
       gradientTransform="matrix(1.3478,0,0,1.3478,-0.17391,-1383.5)"
       gradientUnits="userSpaceOnUse">
      <stop
         id="stop3803-7"
         stop-color="#242424"
         offset="0" />
      <stop
         id="stop3805-5"
         stop-color="#101010"
         offset="1" />
    </linearGradient>
  </defs>
  <rect
     id="rect3029-6"
     x="2"
     y="2"
     width="32"
     height="32"
     rx="2"
     ry="2"
     style="color:#000000;opacity:0.62085003;fill:#060606" />
  <rect
     id="rect3029-6-6"
     x="1"
     y="0.99997997"
     width="32"
     height="32"
     rx="2"
     ry="2"
     style="color:#000000;opacity:0.72000002" />
  <rect
     id="rect3029"
     x="0.5"
     y="0.49998"
     width="31"
     height="31"
     rx="2"
     ry="2"
     style="color:#000000;fill:url(#linearGradient5688)" />
  <g
     id="g3770"
     transform="translate(0,-1018.4)">
    <path
       id="path3936-0-8-9-3"
       d="M 23.95,1035.4 12,1043.3777 v 1.6562 l 13.2,-8.7902 z"
       inkscape:connector-curvature="0"
       style="fill:#060606" />
    <path
       id="path3936-0-8-9-7"
       d="m 11,1026.7 12.95,8.634 -12.95,8.6339 v -17.268"
       inkscape:connector-curvature="0"
       style="fill:#bfbfbf" />
  </g>
  <path
     id="path5055"
     d="M 2.6562,0 C 1.1904,0 0,1.1904 0,2.6562 v 26.688 c 0,1.4658 1.1904,2.6562 2.6562,2.6562 h 26.688 c 1.4658,0 2.6562,-1.1904 2.6562,-2.6562 V 2.6562 C 32.0004,1.1904 30.81,0 29.3442,0 Z m 0.125,1 h 26.438 c 0.76725,0 1.7812,1.014 1.7812,1.7812 v 26.438 c 0,0.76725 -1.014,1.7812 -1.7812,1.7812 H 2.7812 C 2.01395,31.0004 1,29.9864 1,29.2192 V 2.7812 C 1,2.01395 2.014,1 2.7812,1 Z"
     style="color:#000000;text-indent:0;text-transform:none;fill:#585858"
     inkscape:connector-curvature="0" />
</svg>
