<?xml version="1.0" encoding="UTF-8" standalone="no"?>
<svg
   xmlns:dc="http://purl.org/dc/elements/1.1/"
   xmlns:cc="http://creativecommons.org/ns#"
   xmlns:rdf="http://www.w3.org/1999/02/22-rdf-syntax-ns#"
   xmlns:svg="http://www.w3.org/2000/svg"
   xmlns="http://www.w3.org/2000/svg"
   xmlns:sodipodi="http://sodipodi.sourceforge.net/DTD/sodipodi-0.dtd"
   xmlns:inkscape="http://www.inkscape.org/namespaces/inkscape"
   id="svg4724"
   width="20"
   height="40"
   version="1.1"
   sodipodi:docname="btn_samplerCollapse.svg"
   inkscape:version="0.92.3 (2405546, 2018-03-11)">
  <metadata
     id="metadata16">
    <rdf:RDF>
      <cc:Work
         rdf:about="">
        <dc:format>image/svg+xml</dc:format>
        <dc:type
           rdf:resource="http://purl.org/dc/dcmitype/StillImage" />
      </cc:Work>
    </rdf:RDF>
  </metadata>
  <sodipodi:namedview
     pagecolor="#ffffff"
     bordercolor="#666666"
     borderopacity="1"
     objecttolerance="10"
     gridtolerance="10"
     guidetolerance="10"
     inkscape:pageopacity="0"
     inkscape:pageshadow="2"
     inkscape:window-width="959"
     inkscape:window-height="1024"
     id="namedview14"
     showgrid="false"
     inkscape:zoom="16.68772"
     inkscape:cx="13.797121"
     inkscape:cy="20.291028"
     inkscape:window-x="0"
     inkscape:window-y="0"
     inkscape:window-maximized="0"
     inkscape:current-layer="svg4724" />
  <defs
     id="defs4726">
    <linearGradient
       id="linearGradient5772-6"
       x1="20"
       x2="20"
       y1="1042.4"
       y2="1035.4"
       gradientTransform="matrix(1,0,0,-1,0,1068.3)"
       gradientUnits="userSpaceOnUse">
      <stop
         id="stop5768-7"
         stop-color="#c8c8c8"
         offset="0" />
      <stop
         id="stop5770-5"
         stop-color="#646464"
         offset="1" />
    </linearGradient>
    <linearGradient
       id="linearGradient5254-3"
       x1="13"
       x2="13"
       y1="1027.4"
       y2="1049.4"
       gradientTransform="matrix(1.4783 0 0 .82609 1.7609 -829.81)"
       gradientUnits="userSpaceOnUse">
      <stop
         id="stop3803-7-5"
         stop-color="#242424"
         offset="0" />
      <stop
         id="stop3805-5-6"
         stop-color="#101010"
         offset="1" />
    </linearGradient>
  </defs>
  <path
     id="rect3029"
     d="m2.5 0.50002h15c1.108 0 2 0.892 2 2v35c0 1.108-0.892 2-2 2h-15c-1.108 0-2-0.892-2-2v-35c0-1.108 0.892-2 2-2z"
     fill="url(#linearGradient5254-3)"
     color="#000000" />
  <path
     id="rect3029-96-0-7"
     d="m2.5 0.5c-1.0994 0-2 0.9006-2 2v1.5h19v-1.5c0-1.0994-0.90065-2-2-2z"
     color="#000000"
     fill="#c8c8c8"
     style="text-decoration-line:none;text-indent:0;text-transform:none" />
  <path
     id="rect3029-96-0"
     d="m2 40c-1.0994 0-2-0.9006-2-2v-36c0-1.0994 0.90065-2 2-2h16c1.0994 0 2 0.9006 2 2v36c0 1.0994-0.90065 2-2 2zm0.3-1h15.4c0.56265 0 1.3-0.7374 1.3-1.3v-35.4c0-0.5626-0.73735-1.3-1.3-1.3h-15.4c-0.56265 0-1.3 0.7374-1.3 1.3v35.4c0 0.5626 0.73735 1.3 1.3 1.3z"
     color="#000000"
     fill="url(#linearGradient5772-6)"
     style="text-decoration-line:none;text-indent:0;text-transform:none" />
  <g
     id="g1508"
     transform="rotate(179.93453,9.8539005,21.737992)">
    <path
       d="M 9.8541381,21.507474 4.0483307,11.451642 H 15.659801 Z"
       id="path3065-6"
       style="fill:#d2d2d2;fill-opacity:1;stroke-width:1.43654764"
       inkscape:connector-curvature="0" />
    <path
       d="M 9.8538077,32.024342 4.048,21.96851 h 11.611471 z"
       id="path3065-6-3"
       style="fill:#d2d2d2;fill-opacity:1;stroke-width:1.43654764"
       inkscape:connector-curvature="0" />
  </g>
</svg>
